<svg width="60" height="64" viewBox="0 0 60 64" fill="none" xmlns="http://www.w3.org/2000/svg">
<path d="M7.85599 40.2069C12.071 21.0636 13.5445 63.4686 18.7554 42.555C24.1647 18.9332 26.0825 35.2366 28.6572 48.7862C31.7447 69.4767 34.9393 68.2403 37.4684 50.0665C41.167 23.7946 45.2662 32.8551 46.7168 42.3091C50.3242 63.2912 51.9031 48.7915 53.2905 42.3495C55.0468 33.2626 57.0788 33.8351 58.6225 36.9507C58.6671 37.04 58.7418 37.1108 58.8333 37.1506C58.9248 37.1904 59.0275 37.1967 59.1232 37.1684C59.2189 37.1402 59.3016 37.0791 59.3568 36.9959C59.4121 36.9128 59.4362 36.8128 59.4252 36.7136C58.4399 27.6443 55.2909 3.46583 51.5887 23.8666C47.3737 43.0186 46.0056 0.604874 40.7947 21.5185C35.3837 45.1367 33.4676 28.8368 30.8929 15.2802C27.3804 -5.90208 24.1857 -3.86306 21.9781 13.9999C18.2777 40.2718 14.1785 31.2113 12.7279 21.7573C9.12226 0.782257 8.10538 15.2802 6.71618 21.7239C4.9283 30.9619 2.50115 30.2172 0.804596 26.9646C0.76084 26.8731 0.685761 26.8002 0.592936 26.7591C0.50011 26.7181 0.395667 26.7117 0.298494 26.7409C0.201321 26.7702 0.117832 26.8333 0.0631264 26.9188C0.0084206 27.0043 -0.0138908 27.1065 0.000226999 27.207C0.971441 36.1534 4.13271 60.7253 7.85599 40.2069Z" fill="url(#paint0_linear_1978_1495)"/>
<defs>
<linearGradient id="paint0_linear_1978_1495" x1="29.7144" y1="0.000719783" x2="29.7144" y2="64.0007" gradientUnits="userSpaceOnUse">
<stop stop-color="#FB5B73"/>
<stop offset="0.31" stop-color="#FB455D"/>
<stop offset="0.74" stop-color="#FA2D45"/>
<stop offset="1" stop-color="#FA243C"/>
</linearGradient>
</defs>
</svg>
