<svg width="30" height="40" viewBox="0 0 30 40" fill="none" xmlns="http://www.w3.org/2000/svg">
<path d="M29.6265 0.0547791V38.3238C29.6265 38.4312 29.6053 38.5377 29.5642 38.637C29.523 38.7363 29.4628 38.8265 29.3868 38.9025C29.3108 38.9785 29.2205 39.0388 29.1212 39.0799C29.0219 39.121 28.9155 39.1422 28.8081 39.1422H2.79427C2.68679 39.1422 2.58037 39.121 2.48108 39.0799C2.38178 39.0388 2.29156 38.9785 2.21556 38.9025C2.13956 38.8265 2.07928 38.7363 2.03815 38.637C1.99702 38.5377 1.97585 38.4312 1.97585 38.3238V34.3177C1.97585 34.2103 1.99702 34.1038 2.03815 34.0045C2.07928 33.9052 2.13956 33.815 2.21556 33.739C2.29156 33.663 2.38178 33.6027 2.48108 33.5616C2.58037 33.5205 2.68679 33.4993 2.79427 33.4993H21.8989C22.116 33.4993 22.3241 33.4131 22.4776 33.2596C22.6311 33.1061 22.7173 32.8979 22.7173 32.6809V26.1968C22.7165 26.0361 22.668 25.8794 22.5781 25.7463C22.4881 25.6133 22.3606 25.5099 22.2119 25.4494C22.0631 25.3888 21.8997 25.3738 21.7424 25.4061C21.5851 25.4385 21.4409 25.5169 21.3281 25.6312C19.4472 27.4314 16.8935 28.4676 13.6181 28.4676C6.1979 28.4676 0.505859 22.7229 0.505859 14.133C0.505859 5.8083 5.9854 0.28485 13.1966 0.0828799V0.0635609L29.6265 0.0547791ZM22.7138 6.76195C22.7138 6.54489 22.6276 6.33672 22.4741 6.18324C22.3206 6.02976 22.1124 5.94353 21.8954 5.94353H15.0635C10.6132 6.005 7.6679 9.28921 7.6679 14.1716C7.6679 19.2051 10.6676 22.5086 15.19 22.5086C19.6632 22.5086 22.7138 19.2051 22.7138 14.2226V6.76195Z" fill="#0E0E16"/>
</svg>
