<svg width="8" height="28" viewBox="0 0 8 28" fill="none" xmlns="http://www.w3.org/2000/svg">
<path d="M5.95082 0.0244446C6.23651 0.0244442 6.51053 0.137815 6.71271 0.339664C6.91489 0.541514 7.0287 0.815344 7.02917 1.10104V26.883C7.02917 27.0245 7.00126 27.1647 6.94705 27.2954C6.89283 27.4261 6.81338 27.5449 6.71322 27.6449C6.61307 27.7449 6.49417 27.8241 6.36335 27.8781C6.23253 27.9321 6.09235 27.9598 5.95082 27.9596H1.20013C1.05868 27.9598 0.918582 27.9321 0.78786 27.8781C0.657137 27.8241 0.53836 27.7448 0.438343 27.6448C0.338327 27.5447 0.259036 27.426 0.205015 27.2953C0.150993 27.1645 0.123305 27.0244 0.123537 26.883V1.10104C0.123537 0.815506 0.236958 0.541671 0.438858 0.339771C0.640758 0.137872 0.914598 0.0244446 1.20013 0.0244446H5.95082Z" fill="#0E0E16"/>
</svg>
