<svg width="28" height="28" viewBox="0 0 28 28" fill="none" xmlns="http://www.w3.org/2000/svg">
<path d="M27.0825 10.7284V26.9967C27.0825 27.2519 26.9811 27.4967 26.8006 27.6772C26.6201 27.8577 26.3753 27.9591 26.1201 27.9591H21.134C21.0075 27.9594 20.8821 27.9346 20.7652 27.8864C20.6482 27.8381 20.5419 27.7673 20.4523 27.6779C20.3628 27.5885 20.2917 27.4823 20.2433 27.3654C20.1948 27.2485 20.1698 27.1232 20.1698 26.9967V11.856C20.1698 8.29776 17.6285 5.96018 13.7665 5.96018H9.2002C8.71484 5.96018 8.24937 6.15298 7.90618 6.49618C7.56298 6.83938 7.37017 7.30485 7.37017 7.7902V26.9967C7.37017 27.1232 7.34522 27.2485 7.29675 27.3654C7.24827 27.4823 7.17722 27.5885 7.08766 27.6779C6.99811 27.7673 6.8918 27.8381 6.77483 27.8864C6.65786 27.9346 6.53252 27.9594 6.40599 27.9591H1.41293C1.28639 27.9594 1.16105 27.9346 1.04407 27.8864C0.927104 27.8381 0.820807 27.7673 0.731251 27.6779C0.641694 27.5885 0.570635 27.4823 0.522158 27.3654C0.473682 27.2485 0.44873 27.1232 0.44873 26.9967V1.01805C0.44873 0.762333 0.550323 0.517087 0.731143 0.336267C0.911964 0.155447 1.15721 0.0538635 1.41293 0.0538635H16.155C22.7129 0.0538635 27.0825 4.3251 27.0825 10.7284Z" fill="#0E0E16"/>
</svg>
