<svg width="30" height="40" viewBox="0 0 30 40" fill="none" xmlns="http://www.w3.org/2000/svg">
<path d="M29.6969 14.1391C29.6969 22.729 23.9539 28.4737 16.5846 28.4737C13.4514 28.4737 10.9786 27.5253 9.12225 25.8674C8.98108 25.741 8.80632 25.6581 8.61907 25.6287C8.43182 25.5994 8.24008 25.6249 8.06701 25.7022C7.89393 25.7794 7.74692 25.9051 7.64371 26.0641C7.54051 26.2231 7.48553 26.4085 7.48541 26.598V38.1613C7.48541 38.4227 7.38166 38.6735 7.19694 38.8586C7.01222 39.0436 6.76161 39.1478 6.50014 39.1483H1.55802C1.29655 39.1478 1.04595 39.0436 0.861229 38.8586C0.676506 38.6735 0.572753 38.4227 0.572754 38.1613V1.04088C0.572753 0.779413 0.676506 0.528627 0.861229 0.343575C1.04595 0.158523 1.29655 0.0543288 1.55802 0.0538635H16.5846C23.9609 0.0538635 29.6969 5.64581 29.6969 14.1391ZM22.5296 14.19C22.5296 9.30761 19.5439 6.02516 15.1357 5.96193H9.62103C9.34051 5.9617 9.0627 6.01678 8.80349 6.12403C8.54428 6.23127 8.30876 6.38857 8.1104 6.58693C7.91205 6.78528 7.75475 7.0208 7.6475 7.28001C7.54026 7.53922 7.48518 7.81703 7.48541 8.09755V14.2445C7.48541 19.2252 10.4851 22.5305 15.0075 22.5305C19.4807 22.5217 22.5296 19.2165 22.5296 14.1848V14.19Z" fill="#0E0E16"/>
</svg>
